<svg width="858" height="832" viewBox="0 0 858 832" fill="none" xmlns="http://www.w3.org/2000/svg">
<path d="M782.268 392.462C799.334 398.503 815.479 405.587 830.255 415.478C839.199 421.465 847.165 428.488 852.578 437.988C863.395 456.969 857.277 477.388 837.539 486.586C819.194 495.136 799.574 496.089 779.784 494.475C754.608 492.421 730.42 485.282 705.943 479.636C696.291 477.409 698.58 477.117 694.709 484.574C693.711 486.496 692.911 488.579 691.613 490.276C684.924 499.024 685.769 508.342 687.739 518.577C694.09 551.591 699.871 584.753 699.222 618.579C698.769 642.24 695.284 665.377 685.148 687.049C678.108 702.102 667.937 714.758 654.49 724.598C651.328 726.912 650.021 729.437 650.177 733.381C650.823 749.729 650.388 766.02 646.244 781.996C643.506 792.55 639.689 802.622 633.208 811.524C619.738 830.028 599.906 836.045 578.464 828.114C563.13 822.442 551.586 811.706 540.897 799.867C528.546 786.19 518.404 770.949 509.555 754.84C508.019 752.044 506 750.68 502.993 750.222C475.098 745.976 447.919 738.902 421.432 729.218C418.302 728.073 416.051 729.037 413.508 730.397C389.094 743.454 364.222 755.478 337.619 763.516C323.714 767.717 309.617 770.997 295.002 771.131C290.605 771.171 288.381 772.955 287.311 777.21C284.741 787.424 284.003 797.472 287.486 807.694C290.345 816.085 286.956 823.055 279.465 825.468C272.238 827.796 266.176 824.156 263.026 815.787C258.155 802.845 258.324 789.75 261.496 776.5C262.03 774.266 263.207 772.137 262.869 769.742C262.102 768.675 260.941 768.466 259.826 768.128C234.537 760.459 219.363 743.071 211.556 718.354C205.813 700.17 204.302 681.507 204.419 662.615C204.474 653.742 204.587 653.539 195.539 652.677C134.886 646.898 94.9753 606.294 79.7892 551.306C78.6825 547.298 77.4056 543.254 77.0226 539.151C76.5667 534.269 74.3875 532.103 69.678 530.68C51.217 525.098 33.7729 517.31 18.8821 504.689C9.72002 496.924 3.17909 487.376 0.885238 475.461C-2.54453 457.646 4.27685 443.101 16.4182 430.679C29.6042 417.189 46.0247 408.715 63.2081 401.577C80.3367 394.462 98.1373 389.553 116.235 385.644C122.244 384.346 128.479 375.465 127.405 369.495C123.117 345.658 121.212 321.644 122.069 297.438C122.19 293.997 120.557 291.846 118.372 289.674C107.707 279.076 97.7234 267.871 89.845 255.02C82.9484 243.77 77.0387 232.208 76.5554 218.399C75.8476 198.175 88.0924 185.291 103.136 178.846C115.117 173.713 127.877 172.345 140.723 171.716C145.541 171.481 150.393 171.61 155.213 171.873C158.467 172.052 160.391 170.732 162.122 168.072C196.153 115.771 244.319 85.3397 305.706 75.3232C315.091 73.7919 324.475 72.4386 333.987 72.5053C337.468 72.5297 338.912 71.0825 339.913 67.8745C345.164 51.0588 352.388 35.1869 363.558 21.3822C369.57 13.9525 376.31 7.30476 385.131 3.15073C399.525 -3.6278 414.337 0.752457 422.992 14.1609C429.875 24.8238 432.307 36.925 434.172 49.0905C436.01 61.0784 437.031 73.1959 438.221 85.2753C438.467 87.7744 439.287 89.1755 441.681 90.0366C458.673 96.1471 474.822 104.033 490.061 113.706C492.811 115.451 494.296 114.129 496.138 112.643C507.703 103.312 519.777 94.7138 532.989 87.8502C552.541 77.6928 573.309 72.6768 595.242 76.0363C627.76 81.017 648.017 100.996 659.296 131.018C664.14 143.913 666.397 157.367 666.946 171.086C667.086 174.571 668.104 176.912 671.122 178.887C678.417 183.661 684.676 189.716 690.192 196.42C692.612 199.36 694.522 199.503 697.753 197.86C716.049 188.562 734.808 180.341 754.698 175.026C765.168 172.229 775.725 169.919 786.719 171.311C809.131 174.149 820.784 190.089 816.815 212.675C813.707 230.361 804.834 245.407 794.783 259.828C778.543 283.13 759.95 304.475 739.9 324.549C736.643 327.81 735.069 331.096 734.864 335.845C734.346 347.801 733.817 359.799 731.52 371.603C730.657 376.044 731.658 378.506 736.792 379.458C752.21 382.32 767.12 387.14 782.268 392.462ZM245.51 572.767C256.533 585.713 268.546 597.707 280.683 609.594C283.483 612.336 286.062 612.684 289.621 611.412C302.642 606.759 315.36 601.395 327.916 595.627C353.691 583.787 377.966 569.247 402.069 554.398C408.292 550.565 408.268 550.634 405.947 543.443C396.752 514.955 386.423 486.816 379.547 457.612C379.155 455.945 378.864 453.996 376.702 452.912C371.653 456.599 366.693 460.509 361.453 464C329.176 485.501 294.858 503.015 258.37 516.198C255.175 517.353 253.612 519.115 252.792 522.387C249.356 536.099 246.103 549.848 243.055 563.653C242.288 567.124 242.359 569.819 245.51 572.767ZM568.43 229.868C560.675 218.023 552.544 206.457 543.388 195.631C541.709 193.646 540.106 192.686 537.397 193.43C509.742 201.024 483.157 211.604 456.585 222.229C454.506 223.061 453.392 224.191 453.86 226.76C454.991 232.968 455.702 239.252 456.816 245.463C462.103 274.927 469.601 303.915 475.789 333.187C476.212 335.191 476.112 337.567 478.085 338.94C479.506 338.97 480.278 337.994 481.189 337.322C514.96 312.426 549.248 288.272 584.546 265.581C587.563 263.641 587.622 262.017 586.016 259.163C580.545 249.441 574.927 239.815 568.43 229.868ZM323.694 166.31C323.365 147.26 326.06 128.477 328.843 109.716C330.606 97.8295 330.754 97.8006 318.554 99.2655C272.483 104.798 233.175 123.82 201.619 158.153C196.603 163.61 191.712 169.219 187.49 176.445C237.066 186.236 282.766 204.629 326.561 228.989C324.754 208.127 323.216 187.763 323.694 166.31ZM154.773 288.513C164.903 297.192 175.448 305.321 186.423 312.917C189.405 314.981 191.495 315.46 194.749 313.15C201.803 308.142 209.202 303.602 216.593 299.089C244.974 281.759 275.131 268.04 305.791 255.344C307.677 254.563 310.068 254.322 310.907 251.997C310.457 250.603 309.295 250.218 308.298 249.66C267.474 226.781 224.516 209.681 178.262 201.395C173.933 200.62 171.586 201.693 169.695 205.778C159.114 228.636 152.164 252.465 149.247 277.513C148.674 282.435 150.719 285.413 154.773 288.513ZM525.574 661.905C520.476 664.197 518.433 667.854 519.964 673.476C520.474 675.348 520.156 677.453 520.171 679.452C520.268 692.098 521.009 704.735 520.264 717.395C519.885 723.846 522.172 726.189 528.273 726.833C544.205 728.516 560.152 728.86 576.129 727.475C588.444 726.408 600.573 724.372 612.287 720.364C622.739 716.788 622.708 716.668 621.757 705.796C621.612 704.141 621.34 702.497 621.104 700.852C617.05 672.625 609.808 645.126 602.056 617.749C600.99 613.982 600.197 610.055 597.843 606.093C575.048 626.419 551.102 644.604 525.574 661.905ZM350.186 189.255C350.833 204.508 351.898 219.716 354.656 235.684C363.66 231.494 373.611 230.372 380.502 224.153C393.595 212.338 405.635 199.358 418.149 186.899C420.234 184.823 420.646 182.594 420.279 179.662C419.205 171.088 418.518 162.466 417.718 153.859C416.393 139.613 415.042 125.369 413.842 111.113C413.621 108.49 412.51 107.377 410.035 106.764C394.659 102.96 379.078 100.517 363.319 98.9766C358.557 98.5109 357.026 100.384 356.117 104.776C350.413 132.358 349.357 160.241 350.186 189.255ZM574.99 542.263C566.836 524.273 558.405 506.425 548.349 489.197C547.096 489.81 546.31 490.085 545.644 490.536C533.094 499.027 520.599 507.603 507.986 515.999C505.015 517.976 505.126 520.567 505.442 523.446C508.923 555.187 512.728 586.891 515.502 618.71C515.974 624.125 515.203 629.919 518.078 635.86C525.07 630.803 531.582 626.23 537.948 621.463C554.345 609.184 570.589 596.714 585.646 582.772C588.449 580.177 589.196 577.73 587.773 573.989C583.809 563.561 579.842 553.141 574.99 542.263ZM264.705 396.095C230.501 397.659 196.303 399.28 162.324 404.153C161.833 406.552 162.297 408.297 162.823 410.032C164.95 417.039 166.964 424.083 169.238 431.042C177.166 455.301 187.109 478.726 198.339 501.636C200.33 505.698 202.427 506.945 206.826 505.549C213.958 503.287 221.231 501.427 228.518 499.713C232.294 498.825 233.913 496.664 234.886 493.067C239.498 476.033 244.644 459.164 250.684 442.566C255.581 429.111 260.464 415.657 265.76 402.351C266.464 400.581 269.51 397.993 264.705 396.095ZM116.242 573.081C122.054 583.683 129.384 593.116 138.363 601.201C156.056 617.133 176.911 625.671 200.594 627.545C204.761 627.875 206.433 626.465 206.829 622.085C208.101 608.016 210.593 594.102 213.247 580.235C213.892 576.869 213.504 574.227 211.425 571.421C204.292 561.795 197.234 552.06 191.555 541.512C188.845 536.479 185.819 535.608 180.466 536.398C159.22 539.534 137.885 541.44 116.348 539.346C112.34 538.957 108.251 537.415 103.664 538.8C105.717 550.882 110.377 561.806 116.242 573.081ZM708.288 319.423C708.121 315.949 707.909 312.475 707.794 308.999C706.95 283.508 698.469 260.191 687.537 237.558C686.103 234.591 684.525 233.683 681.359 235.596C672.961 240.671 664.39 245.459 655.892 250.369C653.94 251.497 652.773 253.106 652.054 255.334C647.652 268.971 642.089 282.14 635.56 294.892C634.403 297.152 634.309 299.168 635.297 301.527C643.651 321.485 650.878 341.828 656.096 362.857C657.169 367.182 659.151 367.847 662.321 364.771C677.601 349.945 693.345 335.593 708.288 319.423ZM433.449 616.796C429.223 606.173 424.996 595.551 420.409 584.022C398.621 612.077 377.381 639.429 356.021 666.934C357.687 668.221 358.54 669.009 359.509 669.61C374.389 678.832 389.808 687.025 405.495 694.813C413.315 698.696 419.518 698.965 426.948 693.945C437.391 686.888 448.819 681.321 459.603 673.956C450.444 655.194 441.426 636.651 433.449 616.796ZM246.569 729.745C252.487 736.896 259.978 741.571 268.874 744.151C272.111 745.09 274.07 744.343 275.737 741.226C279.737 733.746 283.931 726.356 288.37 719.128C296.999 705.077 306.391 691.532 316.179 678.262C317.73 676.159 319.825 674.227 316.226 671.74C304.029 663.312 292.358 654.182 281.09 644.545C279.403 643.102 277.615 642.741 275.532 643.354C262.415 647.214 249.069 650.004 235.482 651.49C231.219 651.957 230.123 653.922 230.176 657.994C230.306 667.978 230.086 677.971 231.367 687.899C233.281 702.725 236.61 717.072 246.569 729.745ZM553.458 106.785C539.255 112.654 526.543 120.887 514.253 130.825C525.308 139.504 535.555 148.07 544.394 158C548.46 162.568 552.22 163.178 557.744 162.113C583.442 157.157 609.218 155.305 635.007 161.727C636.377 162.068 637.86 162.913 639.622 161.303C639.821 152.58 636.848 144.283 633.442 136.21C625.727 117.923 613.018 105.024 592.821 101.461C579.55 99.1193 566.635 101.573 553.458 106.785ZM627.965 538.281C638.065 526.505 647.269 514.068 655.648 501.011C657.176 498.629 657.649 496.304 657.07 493.467C655.541 485.976 654.071 478.458 653.044 470.888C652.568 467.374 650.91 466.145 647.733 465.559C630.723 462.422 613.736 459.159 596.746 455.918C595.268 455.636 593.882 455.207 592.466 456.263C584.885 461.91 577.268 467.506 569.394 473.319C584.34 501.061 598.474 528.663 609.264 558.756C616.441 552.022 621.929 545.38 627.965 538.281ZM713.66 441.869C712.662 445.853 710.247 449.428 710.017 453.649C710.635 453.997 711.034 454.352 711.491 454.459C735.925 460.184 759.988 467.871 785.255 469.293C797.728 469.994 810.249 469.855 822.221 465.366C832.151 461.643 834.015 455.165 827.369 446.859C822.423 440.679 816.19 435.991 809.254 432.16C790.031 421.542 769.318 414.74 748.422 408.472C741.137 406.287 733.713 404.393 725.539 403.496C721.762 416.16 718.701 428.926 713.66 441.869ZM665.578 539.011C665.205 537.455 664.832 535.9 664.285 533.614C650.669 551.572 636.475 568.055 620.988 583.391C618.84 585.518 619.641 587.554 620.373 589.794C631.237 623.035 639.972 656.801 645.612 691.346C645.95 693.417 645.649 695.992 647.574 697.633C649.521 696.887 650.44 695.446 651.505 694.204C654.216 691.041 656.754 687.756 658.788 684.092C673.113 658.284 674.471 630.129 673.335 601.653C672.506 580.854 669.163 560.307 665.578 539.011ZM413.84 482.665C418.574 499.517 424.498 515.963 430.097 532.878C431.117 532.063 431.569 531.815 431.871 531.445C445.33 514.937 458.687 498.349 471.46 481.299C472.869 479.418 473.027 477.314 472.751 475.12C471.321 463.745 469.841 452.377 468.448 440.997C468 437.33 466.195 435.525 462.4 435.116C456.79 434.512 451.227 433.467 445.65 432.566C434.826 430.816 424.012 428.998 413.182 427.283C405.428 426.055 399.326 432.816 401.468 440.247C405.472 454.142 409.536 468.02 413.84 482.665ZM322.98 294.29C326.259 289.682 329.405 284.97 332.867 280.503C335.029 277.715 335.274 275.295 332.853 272.399C291.856 288.515 251.755 306.075 214.918 330.52C215.903 332.471 217.416 332.923 218.659 333.647C237.368 344.548 256.601 354.427 276.411 363.176C282.634 365.923 282.623 365.91 285.576 359.903C296.597 337.484 308.275 315.439 322.98 294.29ZM100.496 496.812C100.355 500.307 100.293 503.807 100.049 507.294C99.8148 510.646 100.806 512.21 104.57 512.821C121.143 515.51 137.795 515.052 154.413 514.252C160.885 513.94 167.567 513.713 174.404 511.582C158.251 478.197 145.037 444.113 135.339 407.279C133.192 410.433 132.021 412.032 130.975 413.708C115.182 439.012 103.961 466.003 100.496 496.812ZM268.081 485.379C282.099 479.586 295.365 472.272 308.719 465.15C328.855 454.41 348.477 442.84 366.382 428.571C368.381 426.977 370.332 425.465 369.555 422.408C368.898 419.826 367.837 417.85 364.904 417.235C342.91 412.625 321.421 406.181 300.139 399.045C296.602 397.859 294.915 398.872 293.712 402.08C292.37 405.659 290.817 409.16 289.335 412.686C279.985 434.932 271.687 457.552 265.095 480.779C264.477 482.955 263.116 485.601 268.081 485.379ZM719.72 216.106C718.043 216.841 716.365 217.573 714.69 218.31C708.485 221.042 708.352 221.374 711.442 227.401C720.691 245.441 727.242 264.392 730.879 284.353C731.431 287.386 731.068 290.663 732.884 293.384C734.172 293.458 734.782 292.566 735.42 291.865C750.34 275.48 764.858 258.762 777.086 240.214C783.624 230.296 789.187 219.898 791.268 208.003C792.428 201.374 789.678 197.72 783.026 197.173C779.711 196.9 776.397 197.062 773.074 197.58C754.416 200.489 737.423 208.166 719.72 216.106ZM468.767 632.617C473.06 641.572 477.041 650.687 481.982 659.258C491.563 655.413 492.115 654.749 491.721 645.346C491.463 639.199 490.986 633.053 490.372 626.931C488.18 605.076 485.92 583.228 483.615 561.385C482.714 552.849 481.626 544.334 480.625 535.824C477.616 535.754 476.079 537.479 474.32 538.602C464.631 544.784 455.148 551.308 445.277 557.179C441.004 559.721 440.119 562.042 441.855 566.72C450.028 588.744 458.756 610.531 468.767 632.617ZM55.9511 433.265C47.6992 437.997 39.7451 443.12 33.4313 450.4C23.7687 461.542 24.074 473.195 34.3686 483.685C40.867 490.307 48.6389 495.063 57.0416 498.85C62.2805 501.211 67.3414 504.099 73.8907 504.982C75.1046 489.526 77.5962 474.72 81.6108 460.141C85.627 445.556 92.0344 431.884 97.6016 417.698C82.6767 420.7 69.3249 425.986 55.9511 433.265ZM597.534 312.844C599.127 309.922 600.749 307.016 602.307 304.075C605.802 297.478 604.999 292.912 599.105 287.053C562.943 310.626 527.864 335.878 492.7 361.187C494.054 362.737 495.116 362.51 496.071 362.499C517.702 362.257 539.332 361.945 560.963 361.781C564.128 361.757 565.676 359.971 567.315 357.748C577.886 343.407 587.755 328.597 597.534 312.844ZM543.922 761.439C545.857 764.147 547.718 766.913 549.74 769.555C558.878 781.491 568.488 792.944 581.702 800.716C596.316 809.312 607.775 806.109 615.697 791.172C620.21 782.662 622.33 773.434 623.588 764.01C624.522 757.005 625.528 749.941 624.097 742.111C596.73 752.154 568.624 754.479 540.005 753.322C540.037 756.82 542.11 758.675 543.922 761.439ZM372.65 292.704C370.104 291.012 368.167 288.26 364.787 287.892C363.608 290.068 364.32 292.029 364.68 293.94C368.93 316.483 374.653 338.692 379.81 361.03C380.67 364.754 382.497 365.807 386.04 365.684C401.669 365.142 417.311 364.924 432.932 364.218C437.303 364.02 441.839 364.367 447.329 362.627C423.852 337.363 399.638 314.092 372.65 292.704ZM639.701 201.134C639.755 200.137 639.779 199.138 639.866 198.145C640.557 190.319 640.577 190.267 633.073 187.941C616.243 182.723 599.067 182.248 581.754 184.56C577.926 185.071 573.854 184.784 569.766 187.023C584.681 206.548 597.689 226.957 609.471 248.808C616.297 244.594 622.564 240.584 628.981 236.83C631.634 235.278 633.126 233.237 633.859 230.31C636.199 220.963 638.4 211.592 639.701 201.134ZM435.633 272.526C433.14 259.882 430.646 247.237 428.072 234.183C417.208 237.427 407.464 242.158 397.337 245.848C388.26 249.157 384.261 257.444 378.245 264.442C403.196 282.407 424.71 303.019 445.593 324.355C446.117 323.988 446.642 323.622 447.167 323.256C443.35 306.625 439.533 289.995 435.633 272.526ZM344.447 734.649C359.167 729.178 373.463 722.806 387.461 715.328C386.739 714.417 386.592 714.062 386.33 713.925C371.74 706.294 357.205 698.563 343.126 690.011C340.513 688.424 339.274 689.849 337.866 691.767C326.544 707.198 315.729 722.971 305.695 739.271C304.803 740.721 303.27 742.123 304.495 744.819C318.022 743.638 330.904 739.437 344.447 734.649ZM610.388 389.097C600.414 388.749 590.438 388.447 580.467 388.02C577.705 387.902 575.867 388.854 574.187 391.126C570.035 396.742 565.551 402.113 561.262 407.629C557.675 412.243 554.173 416.923 550.168 422.186C562.268 424.05 573.256 425.736 584.241 427.441C586.777 427.834 588.746 426.711 590.629 425.233C597.175 420.096 603.903 415.175 610.243 409.796C617.404 403.72 625.204 398.36 632.644 390.648C624.819 390.086 618.083 389.602 610.388 389.097ZM377.514 46.7944C372.852 54.9358 368.454 63.1886 365.841 72.778C381.294 75.0994 396.103 76.6877 410.921 80.41C411.203 74.9532 410.45 70.2216 409.69 65.5076C407.92 54.5228 407.046 43.3481 402.981 32.8356C400.566 26.5915 397.967 25.7649 392.436 29.2769C385.867 33.4487 382.148 40.0306 377.514 46.7944ZM121.843 200.118C119.94 200.705 118.013 201.226 116.137 201.891C104.356 206.068 100.447 213.894 104.25 225.72C104.859 227.613 105.574 229.486 106.412 231.288C110.859 240.855 117.015 249.313 123.582 257.494C124.068 258.1 124.616 258.838 126.163 258.283C129.775 238.002 135.988 218.155 144.59 198.364C136.573 197.42 129.6 198.396 121.843 200.118ZM465.336 174.629C460.429 179.361 455.552 184.126 450.599 188.811C448.581 190.72 447.358 192.98 449.004 195.396C450.545 197.658 452.703 195.793 454.389 195.106C474.41 186.95 494.664 179.441 515.246 172.817C516.762 172.329 518.598 172.283 519.361 170.479C519.1 168.577 517.613 167.637 516.384 166.579C510.588 161.595 504.619 156.805 498.951 151.681C495.476 148.541 492.797 148.966 489.578 152.06C481.79 159.547 473.784 166.808 465.336 174.629ZM312.898 362.122C312.268 363.955 310.706 365.469 310.936 367.692C311.418 367.902 311.861 368.273 312.288 368.256C324.914 367.733 337.536 367.112 350.164 366.653C353.995 366.514 353.994 364.445 353.312 361.625C351.631 354.677 350.012 347.715 348.383 340.755C346.312 331.908 344.256 323.058 341.828 312.639C330.44 329.019 321.565 345.082 312.898 362.122ZM671.49 429.918C672.371 434.152 673.328 438.372 674.112 442.624C674.932 447.069 678.75 446.166 681.591 446.943C684.461 447.729 684.867 445.266 685.571 443.516C687.249 439.344 688.947 435.167 690.323 430.891C693.726 420.314 697.496 409.828 699.377 398.923C697.776 397.462 696.142 397.308 694.476 397.098C687.378 396.204 680.292 395.207 673.194 394.313C666.412 393.459 664.449 395.809 665.918 402.68C667.796 411.464 669.568 420.272 671.49 429.918ZM371.625 601.579C351.095 613.161 329.672 622.918 307.184 632.234C315.039 639.472 323.138 644.694 330.78 650.503C333.801 652.798 335.553 652.084 337.673 649.257C343.764 641.136 350.13 633.221 356.344 625.191C362.42 617.338 368.441 609.443 375.113 600.751C373.375 601.088 372.766 601.206 371.625 601.579ZM218.614 372.719C223.202 372.118 228.046 373.319 233.062 370.963C219.603 363.298 206.754 355.982 193.908 348.661C191.943 347.541 190.486 348.49 188.955 349.688C180.82 356.052 173.221 363.028 165.688 370.076C163.217 372.387 160.951 374.917 157.537 378.433C178.65 376.227 198.109 373.947 218.614 372.719ZM449.916 121.51C447.279 120.376 444.835 118.534 441.181 118.976C442.064 132.413 442.554 145.538 444.809 159.687C454.524 150.596 463.41 142.281 472.774 133.517C465.181 128.851 457.932 125.258 449.916 121.51ZM606.35 346.596C603.021 351.591 599.692 356.585 595.894 362.283C607.825 363.533 618.475 364.072 629.918 364.372C626.433 352.048 623.238 340.684 617.909 328.995C613.806 335.24 610.274 340.615 606.35 346.596ZM483.932 714.351C482.385 712.186 480.949 709.931 479.267 707.879C476.469 704.464 475.798 698.257 471.437 697.609C467.35 697.002 463.549 701.296 459.787 703.662C456.142 705.953 451.822 707.376 448.253 711.501C461.692 714.699 473.878 719.651 487.387 720.619C486.903 717.58 485.372 716.407 483.932 714.351ZM525.118 473.379C527.595 471.706 530.076 470.041 532.547 468.359C533.913 467.429 534.789 466.266 533.773 464.603C531.385 460.696 529.266 456.574 525.345 453.135C516.494 463.054 508.699 473.337 501.094 483.766C499.917 485.38 499.999 487.191 502.291 489.189C509.615 484.118 517.074 478.956 525.118 473.379ZM541.384 391.853C541.933 390.756 543.387 389.919 542.129 387.92C531.48 387.622 520.602 387.65 509.74 388.097C509.601 388.723 509.463 389.35 509.324 389.977C514.862 396.693 520.401 403.408 526.383 410.661C531.488 404.264 536.224 398.328 541.384 391.853ZM161.089 326.274C157.126 323.398 153.163 320.522 148.995 317.498C147.338 324.87 148.847 343.902 151.451 348.012C157.263 342.874 163.298 338.111 168.474 332.464C166.647 329.407 163.751 328.545 161.089 326.274ZM250.238 616.082C245.668 611.469 241.098 606.855 236.03 601.738C233.803 609.463 233.811 616.319 232.666 622.99C232.397 624.556 233.181 625.75 234.827 625.628C241.678 625.12 248.543 624.587 255.595 621.838C253.637 619.721 252.183 618.148 250.238 616.082ZM443.879 406.59C448.973 407.373 454.073 408.12 459.158 408.954C461.436 409.327 462.861 408.79 462.497 406.179C461.856 401.569 461.19 396.96 460.413 392.372C460.03 390.114 458.521 388.185 456.287 389.559C449.577 393.686 443.258 398.394 437.708 404.084C439.427 406.109 441.307 406.177 443.879 406.59ZM624.654 430.826C623.852 431.895 621.905 432.209 622.392 434.242C629.074 436.415 636.079 436.804 642.847 438.348C644.428 438.708 646.826 438.825 646.462 436.4C645.503 430.012 644.553 423.567 642.148 416.683C635.964 421.672 630.565 426.028 624.654 430.826ZM409.755 391.866C404.364 389.363 398.736 391.418 393.23 391.069C391.616 390.966 389.165 390.366 388.959 393.162C388.787 395.492 390.283 396.601 392.474 397.297C399.305 399.467 405.266 398.939 409.755 391.866ZM707.18 359.389C707.155 359.067 707.159 358.739 707.086 358.429C707.067 358.348 706.729 358.235 706.675 358.285C702.345 362.32 698.028 366.37 693.313 370.791C706 373.578 705.999 373.578 706.867 361.952C706.916 361.295 707.007 360.641 707.18 359.389ZM223.966 532.494C224.31 530.924 225.235 529.352 223.84 527.59C221.015 527.91 218.053 527.932 215.389 530.06C216.621 533.771 218.517 536.907 221.354 539.889C223.082 537.745 223.386 535.471 223.966 532.494ZM663.669 210.958C663.503 212.363 662.732 213.871 664.374 215.061C666.441 214.498 668.529 214.031 669.405 211.673C668.392 209.844 667.302 208.254 665.283 207.72C664.049 208.266 664.262 209.445 663.669 210.958ZM499.135 444.493C502.179 438.487 496.794 441.9 495.22 440.358C494.56 443.102 494.902 445.028 495.866 446.804C497.545 446.997 498.032 445.832 499.135 444.493Z" fill="black"/>
</svg>
